<svg width="1673" height="820" viewBox="0 0 1673 820" fill="none" xmlns="http://www.w3.org/2000/svg">
<path d="M1 0H1538V815H1V0Z" fill="#101522"/>
<path d="M1055.78 645.06C1086.68 639.292 1304.31 799.141 1313 811.5L1196.74 815L5.5 811.5V137.5C5.5 137.5 32.4105 166.138 56.5466 271.192C67.4315 318.569 122.649 477.36 175.296 537.946C233.223 604.892 263.152 547.216 303.7 537.946C344.028 528.727 356.662 551.089 398.588 625.296L399.279 626.521C435.966 719.216 514.167 581.204 535.407 570.904C556.647 560.605 597.196 612.102 648.364 662.569C699.533 713.036 728.496 590.473 764.218 547.216C799.939 503.958 879.105 578.114 940.894 626.521C1002.68 674.928 1017.16 652.269 1055.78 645.06Z" fill="#BBBBBB"/>
<path d="M175.296 537.946C233.223 604.892 263.152 547.216 303.7 537.946C344.249 528.677 356.8 551.335 399.279 626.521C435.966 719.216 514.167 581.204 535.407 570.904C556.647 560.605 597.196 612.102 648.364 662.569C699.533 713.036 728.496 590.473 764.218 547.216C799.939 503.958 879.105 578.114 940.894 626.521C1002.68 674.928 1017.16 652.269 1055.78 645.06C1086.68 639.292 1304.31 799.141 1313 811.5L1196.74 815L5.5 811.5V137.5C5.5 137.5 32.4105 166.138 56.5466 271.192M175.296 537.946C167.276 528.677 225.415 595.623 175.296 537.946ZM175.296 537.946C122.649 477.36 67.4315 318.569 56.5466 271.192M56.5466 271.192C32.4105 166.138 67.2506 317.782 56.5466 271.192Z" stroke="#BBBBBB" stroke-width="10"/>
<path d="M1070.74 645.06C1101.66 639.292 1321.3 802.641 1330 815H1211.82H2V127C2 127 46.4503 166.138 70.6081 271.192C81.5028 318.569 136.77 477.36 189.464 537.946C247.443 604.892 277.399 547.216 317.984 537.946C358.348 528.727 370.993 551.089 412.956 625.296L413.649 626.521C450.369 719.216 528.64 581.204 549.899 570.904C571.158 560.605 611.743 612.102 662.957 662.569C714.172 713.036 743.161 590.473 778.915 547.216C814.668 503.958 893.906 578.114 955.75 626.521C1017.59 674.928 1032.09 652.269 1070.74 645.06Z" fill="#4B59F7"/>
<path d="M189.464 537.946C247.443 604.892 277.399 547.216 317.984 537.946C358.569 528.677 371.131 551.335 413.649 626.521C450.369 719.216 528.64 581.204 549.899 570.904C571.158 560.605 611.743 612.102 662.957 662.569C714.172 713.036 743.161 590.473 778.915 547.216C814.668 503.958 893.906 578.114 955.75 626.521C1017.59 674.928 1032.09 652.269 1070.74 645.06C1101.66 639.292 1321.3 802.641 1330 815H1211.82H2V127C2 127 46.4503 166.138 70.6081 271.192M189.464 537.946C181.437 528.677 239.628 595.623 189.464 537.946ZM189.464 537.946C136.77 477.36 81.5028 318.569 70.6081 271.192M70.6081 271.192C46.4503 166.138 81.3218 317.782 70.6081 271.192Z" stroke="black"/>
</svg>
